<svg width="100" height="100" viewBox="0 0 100 100" fill="none" xmlns="http://www.w3.org/2000/svg">
<path fill-rule="evenodd" clip-rule="evenodd" d="M99.0961 35.1555L91.8306 44.2444C93.0125 49.375 93.8442 52.535 93.4325 56.116C91.7317 60.0795 90.3703 61.832 87.6568 64.6291C85.5648 66.3762 84.2379 67.1426 81.5436 68.0564C79.5278 68.4981 78.3555 68.6187 76.1975 68.6322L74.1555 68.0908L72.1596 67.2898L70.8365 66.3008L69.5595 65.0522L67.9001 63.1224L67.0151 61.1247L66.5007 58.8507C66.3025 56.5364 66.2994 55.2681 66.5108 53.0644C67.0922 50.0873 67.6709 48.5903 69.0811 46.1775C72.2523 42.0271 73.2775 40.9219 76.384 39.1557C79.653 38.3648 82.6544 38.9478 87.5108 39.7136L95.2005 31.0388C95.8011 31.7873 97.0735 33.0928 97.0735 33.0928L99.0961 35.1555ZM84.3903 45.394L85.672 46.8153L86.9842 47.9409L90.3016 46.1275C90.778 47.0747 91.0006 47.6501 91.3367 48.7382C91.7131 49.8507 91.8466 50.4844 91.9895 51.627C92.1431 52.6482 92.1408 53.2214 92.0014 54.2446C91.8279 55.1561 91.6257 55.6377 91.1161 56.4549L83.5358 49.0662L76.1781 41.7849C76.8285 41.195 77.2417 40.9228 78.0823 40.5616C78.9962 40.2786 79.5177 40.226 80.4606 40.2827C81.5244 40.3389 82.1159 40.4216 83.1599 40.6806L85.651 41.5315L84.3903 45.394Z" fill="#3B2F81"/>
<path fill-rule="evenodd" clip-rule="evenodd" d="M43.3066 35.048L50.8205 43.9644C49.7626 49.1651 49.0069 52.3717 49.509 55.9624C51.3136 59.8972 52.7227 61.6177 55.5142 64.3466C57.656 66.0385 59.1562 66.7639 61.8815 67.5981C64.8059 68.5301 68.8285 67.703 70.1099 67.1017C66.8694 64.2582 65.6692 62.1752 64.8737 57.3931L65.0637 52.8132C65.7018 51.1271 65.9132 49.7922 66.3949 48.6181C66.8342 47.5474 67.5355 46.6243 68.2525 45.417L69.8779 43.2565L70.7595 42.4053L71.5154 41.6929C71.5154 41.6929 69.3479 40.0324 66.1879 38.3535C62.8893 37.6612 59.8932 38.343 55.0409 39.2678L47.1119 30.7816C46.528 31.5538 45.3149 32.7716 45.3149 32.7716L43.3066 35.048ZM58.3123 44.8854L57.062 46.3564L55.7737 47.5307L52.4011 45.8111L51.4277 48.4712C51.0856 49.6494 50.9629 50.289 50.8448 51.3991C50.76 52.4579 50.7783 53.0328 50.8979 54.0337C51.1406 54.9535 51.3485 55.4333 51.8409 56.23L59.2607 48.5539L66.4599 40.9929C66.4599 40.9929 65.2264 39.9796 64.5195 39.8221C63.8125 39.6646 63.0408 39.5942 62.1269 39.6169C61.2129 39.6397 60.3672 39.7848 59.4292 40.103L56.9516 41.0383L58.3123 44.8854Z" fill="#3B2F81"/>
<path d="M0 3.22581C0 1.44424 1.2934 0 2.88889 0H97.1111C98.7066 0 100 1.44424 100 3.22581V25.062C100 26.8436 98.7066 28.2878 97.1111 28.2878H2.88889C1.2934 28.2878 0 26.8436 0 25.062V3.22581Z" fill="#3B2F81"/>
<path d="M0 74.938C0 73.1564 1.2934 71.7122 2.88889 71.7122H97.1111C98.7066 71.7122 100 73.1564 100 74.938V96.7742C100 98.5558 98.7066 100 97.1111 100H2.88889C1.2934 100 0 98.5558 0 96.7742V74.938Z" fill="#3B2F81"/>
<path d="M0 33.7469C0 31.9653 1.2934 30.5211 2.88889 30.5211H34.4444C36.0399 30.5211 37.3333 31.9653 37.3333 33.7469V45.9057C37.3333 47.6873 36.0399 49.1315 34.4444 49.1315H2.88889C1.2934 49.1315 0 47.6873 0 45.9057V33.7469Z" fill="#3B2F81"/>
<path d="M0 54.0943C0 52.3127 1.2934 50.8685 2.88889 50.8685H34.4444C36.0399 50.8685 37.3333 52.3127 37.3333 54.0943V66.2531C37.3333 68.0347 36.0399 69.4789 34.4444 69.4789H2.88889C1.2934 69.4789 0 68.0347 0 66.2531V54.0943Z" fill="#3B2F81"/>
<path d="M6.09087 88.1201V91.2839C6.09087 92.3799 5.7668 92.9278 5.11865 92.9278C4.45199 92.9278 4.11865 92.4212 4.11865 91.408L4.14643 81.7616C4.14643 80.2521 4.89643 79.4973 6.39643 79.4973H11.1742C12.5816 79.4973 13.2853 80.19 13.2853 81.5755V84.4601C13.2853 85.9282 12.5631 86.6623 11.1187 86.6623H7.64643C6.60939 86.6623 6.09087 87.1483 6.09087 88.1201ZM9.64643 80.707H7.75754C6.64643 80.707 6.09087 81.3894 6.09087 82.7541V83.6536C6.09087 84.853 6.63717 85.4526 7.72976 85.4526H9.67421C10.7853 85.4526 11.3409 84.7289 11.3409 83.2814V82.3819C11.3409 81.2653 10.7761 80.707 9.64643 80.707Z" fill="white"/>
<path d="M17.1243 91.6561H19.0687C20.1798 91.6561 20.7354 91.0461 20.7354 89.8261V82.475C20.7354 81.2963 20.1706 80.707 19.041 80.707H17.1521C16.041 80.707 15.4854 81.2963 15.4854 82.475V89.8881C15.4854 91.0668 16.0317 91.6561 17.1243 91.6561ZM22.6798 90.6946C22.6798 92.1007 21.9298 92.8038 20.4298 92.8038H15.791C14.291 92.8038 13.541 92.1007 13.541 90.6946V81.6685C13.541 80.221 14.291 79.4973 15.791 79.4973H20.4021C21.9206 79.4973 22.6798 80.221 22.6798 81.6685V90.6946Z" fill="white"/>
<path d="M29.9503 89.2058C30.191 89.8054 30.3762 90.1053 30.5058 90.1053C30.5984 90.1053 30.6447 89.9192 30.6447 89.5469L30.6725 81.2653C30.6725 80.0246 30.9965 79.4042 31.6447 79.4042C32.3114 79.4042 32.6447 79.9109 32.6447 80.9241L32.6169 90.7256C32.6169 92.2144 32.0058 92.9589 30.7836 92.9589C30.2095 92.9589 29.728 92.4729 29.3391 91.501L26.0614 83.1574C25.8206 82.7645 25.6632 82.568 25.5891 82.568C25.478 82.568 25.4225 82.8162 25.4225 83.3124V91.2529C25.4225 92.3695 25.0984 92.9278 24.4503 92.9278C23.7836 92.9278 23.4503 92.4316 23.4503 91.439L23.478 81.6065C23.478 80.097 24.0799 79.3422 25.2836 79.3422C25.7465 79.3422 26.228 79.8488 26.728 80.8621L29.9503 89.2058Z" fill="white"/>
<path d="M41.4151 80.707H36.8873C35.8503 80.707 35.3318 81.2963 35.3318 82.475V89.8881C35.3318 91.0668 35.8781 91.6561 36.9706 91.6561H38.9429C40.0355 91.6561 40.5818 90.922 40.5818 89.4539V87.7479C40.5818 86.9001 40.1466 86.4762 39.2762 86.4762H38.0262C37.3225 86.4762 36.9706 86.2798 36.9706 85.8869C36.9706 85.494 37.304 85.2976 37.9706 85.2976H40.4706C41.841 85.2976 42.5262 85.9489 42.5262 87.2517V90.7256C42.5262 92.111 41.7577 92.8038 40.2206 92.8038H35.6095C34.1281 92.8038 33.3873 92.0697 33.3873 90.6015V81.7616C33.3873 80.2521 34.1373 79.4973 35.6373 79.4973H41.4706C42.1744 79.4973 42.5262 79.6937 42.5262 80.0866C42.5262 80.5002 42.1558 80.707 41.4151 80.707Z" fill="white"/>
<path d="M49.8723 86.4762C48.2798 86.4762 47.4835 85.7835 47.4835 84.398V81.6375C47.4835 80.2107 48.2335 79.4973 49.7335 79.4973H55.5112C56.252 79.4973 56.6223 79.7144 56.6223 80.1487C56.6223 80.5209 56.252 80.707 55.5112 80.707H50.9835C49.9464 80.707 49.4279 81.3273 49.4279 82.568V83.3435C49.4279 84.6462 49.9372 85.2976 50.9557 85.2976H54.2335C55.826 85.2976 56.6223 85.9903 56.6223 87.3757V90.7256C56.6223 92.111 55.8538 92.8038 54.3168 92.8038H48.5668C47.8446 92.8038 47.4835 92.6073 47.4835 92.2144C47.4835 91.8422 47.8538 91.6561 48.5946 91.6561H53.1779C54.1779 91.6561 54.6779 91.1082 54.6779 90.0122V88.5544C54.6779 87.1689 54.1501 86.4762 53.0946 86.4762H49.8723Z" fill="white"/>
<path d="M64.615 89.9812C64.615 89.7744 64.689 89.5986 64.8372 89.4539C64.9853 89.3091 65.2353 89.2368 65.5872 89.2368C66.2353 89.2368 66.5594 89.5676 66.5594 90.2293V90.7566C66.5594 92.1214 65.8557 92.8038 64.4483 92.8038H59.4483C58.0964 92.8038 57.4205 92.0697 57.4205 90.6015V81.7616C57.4205 80.2521 58.1057 79.4973 59.4761 79.4973H64.4483C65.8557 79.4973 66.5594 80.1797 66.5594 81.5444V82.0097C66.5594 82.7541 66.2353 83.1263 65.5872 83.1263C64.939 83.1263 64.615 82.8885 64.615 82.4129C64.615 81.2756 64.0501 80.707 62.9205 80.707H61.0316C59.9205 80.707 59.365 81.2446 59.365 82.3199V90.0742C59.365 91.1288 59.9113 91.6561 61.0039 91.6561H62.9761C64.0687 91.6561 64.615 91.0978 64.615 89.9812Z" fill="white"/>
<path d="M70.9687 91.6561H72.9131C74.0243 91.6561 74.5798 91.0461 74.5798 89.8261V82.475C74.5798 81.2963 74.015 80.707 72.8854 80.707H70.9965C69.8854 80.707 69.3298 81.2963 69.3298 82.475V89.8881C69.3298 91.0668 69.8761 91.6561 70.9687 91.6561ZM76.5243 90.6946C76.5243 92.1007 75.7743 92.8038 74.2743 92.8038H69.6354C68.1354 92.8038 67.3854 92.1007 67.3854 90.6946V81.6685C67.3854 80.221 68.1354 79.4973 69.6354 79.4973H74.2465C75.765 79.4973 76.5243 80.221 76.5243 81.6685V90.6946Z" fill="white"/>
<path d="M83.9613 84.4291C84.3502 83.9948 84.5447 83.4468 84.5447 82.7851V82.1028C84.5076 81.6478 84.378 81.3066 84.1558 81.0792C83.9335 80.831 83.6095 80.707 83.1835 80.707H80.9058C79.8317 80.707 79.2947 81.3997 79.2947 82.7851V83.6226C79.2947 85.0081 79.8224 85.7008 80.878 85.7008H81.6835C82.2946 85.7008 82.7854 85.5043 83.1558 85.1115L83.9613 84.4291ZM85.4891 92.9278C84.8595 92.9278 84.5447 92.4833 84.5447 91.5941V89.3919C84.5447 89.2264 84.4891 89.0507 84.378 88.8646C84.2669 88.6578 84.1187 88.451 83.9335 88.2442L83.128 87.4998C82.665 87.1069 82.2484 86.9105 81.878 86.9105H80.878C79.8224 86.9105 79.2947 87.4998 79.2947 88.6785V91.501C79.2947 92.4522 78.9706 92.9278 78.3224 92.9278C77.6743 92.9278 77.3502 92.4212 77.3502 91.408V81.7616C77.3502 80.2521 78.0632 79.4973 79.4891 79.4973H84.1002C85.6928 79.4973 86.4891 80.2004 86.4891 81.6065V83.6536C86.3965 84.2533 85.9984 84.884 85.2947 85.5457C85.0169 85.7938 84.878 86.0523 84.878 86.3211C84.878 86.5693 85.0076 86.8277 85.2669 87.0966C86.0076 87.8823 86.415 88.5234 86.4891 89.0196V91.5321C86.4891 92.4626 86.1558 92.9278 85.4891 92.9278Z" fill="white"/>
<path d="M90.9817 91.6561H95.5373C96.1299 91.6561 96.4262 91.8526 96.4262 92.2455C96.4262 92.6177 96.1391 92.8038 95.565 92.8038H89.5373C88.0373 92.8038 87.2873 92.1214 87.2873 90.7566V81.6065C87.2873 80.2004 88.0373 79.4973 89.5373 79.4973H95.565C96.1391 79.4973 96.4262 79.6937 96.4262 80.0866C96.4262 80.5002 96.1299 80.707 95.5373 80.707H90.9817C89.815 80.707 89.2317 81.2446 89.2317 82.3199V83.6536C89.2317 84.7496 89.7965 85.2976 90.9262 85.2976H95.5095C96.1206 85.2976 96.4262 85.4733 96.4262 85.8249C96.4262 86.2591 96.1299 86.4762 95.5373 86.4762H90.9262C89.7965 86.4762 89.2317 87.0242 89.2317 88.1201V90.1053C89.2317 91.1392 89.815 91.6561 90.9817 91.6561Z" fill="white"/>
</svg>
